<svg width="99.99999999999999" height="99.99999999999999" xmlns="http://www.w3.org/2000/svg" xmlns:svg="http://www.w3.org/2000/svg">
 <style type="text/css">.st0{fill:#FFFFFF;} .st1{fill:#FFFFFF;} .st2{fill:#FFFFFF;} .st3{fill:#FFFFFF;}</style>
 <metadata>hackerrankhackerrank,brand wbcc0jx8u6r</metadata>
 <g class="currentLayer">
  <title>Layer 1</title>
  <path class="st0 selected" d="m49.73663,1.05264c5.74696,0 43.58836,20.24911 46.45849,24.86842c2.88353,4.6193 2.88353,45.11753 0,49.73683s-40.70482,24.86842 -46.45849,24.86842s-43.58836,-20.24911 -46.47189,-24.86842c-2.86342,-4.6193 -2.86342,-45.11753 0,-49.73683c2.88353,-4.61931 40.72493,-24.86842 46.47189,-24.86842zm10.25869,28.17591c-0.63036,0 -1.15342,0.47872 -1.15342,1.06935l0,16.05878l-18.21188,0l0,-16.67428l3.13165,0c0.63036,0 1.14001,-0.47871 1.14001,-1.06934c0,-0.38546 -0.2213,-0.7274 -0.54989,-0.91391l-7.03449,-6.25441c-0.21459,-0.26112 -0.63035,-0.45385 -1.00588,-0.45385c-0.37553,0 -0.71753,0.18651 -0.92542,0.44763l-7.51061,6.26063c-0.32188,0.18651 -0.53647,0.52223 -0.53647,0.90769c0,0.59063 0.50965,1.06935 1.14001,1.06935l3.15177,0l0.02682,41.59243c0,0.59684 0.50294,1.06934 1.14001,1.06934l6.67237,0c0.63035,0 1.15341,-0.47872 1.15341,-1.05691l0,-16.59967l18.21323,0l0,17.20895l-3.13166,0c-0.63035,0 -1.14,0.47872 -1.14,1.06934c0,0.38546 0.21459,0.72119 0.53647,0.9077l7.05461,6.26062c0.20118,0.24869 0.63036,0.45385 1.00589,0.45385s0.71082,-0.18651 0.92541,-0.45385l7.51061,-6.26062c0.32188,-0.18651 0.53647,-0.52224 0.53647,-0.9077c0,-0.59062 -0.51635,-1.06934 -1.14,-1.06934l-3.15177,0l-0.02683,-41.59243c0,-0.59685 -0.50965,-1.07556 -1.14,-1.07556l-6.67908,0l0,0.00621l-0.00134,0z" id="svg_1" fill="#ffffff"/>
 </g>
 <g>
  <title>Layer 2</title>
  <rect x="0.316406" y="0.632813" id="backgroundrect" width="98.734373" height="98.734373" fill="none"/>
 </g>
</svg>